<mxfile host="app.diagrams.net" modified="2023-08-09T12:05:17.616Z" agent="Mozilla/5.0 (X11; Ubuntu; Linux x86_64; rv:109.0) Gecko/20100101 Firefox/115.0" etag="OdAeBWmpNsDKDfCbU77J" version="21.6.7" type="github">
  <diagram id="C5RBs43oDa-KdzZeNtuy" name="Page-1">
    <mxGraphModel dx="3201" dy="1359" grid="1" gridSize="10" guides="1" tooltips="1" connect="1" arrows="1" fold="1" page="1" pageScale="1" pageWidth="827" pageHeight="1169" background="none" math="0" shadow="0">
      <root>
        <mxCell id="WIyWlLk6GJQsqaUBKTNV-0" />
        <mxCell id="WIyWlLk6GJQsqaUBKTNV-1" parent="WIyWlLk6GJQsqaUBKTNV-0" />
        <mxCell id="2T9Z32FSppc7P3TKEaOp-74" value="Steam Bot" style="whiteSpace=wrap;html=1;rounded=1;" vertex="1" parent="WIyWlLk6GJQsqaUBKTNV-1">
          <mxGeometry x="412" y="750" width="120" height="60" as="geometry" />
        </mxCell>
        <mxCell id="2T9Z32FSppc7P3TKEaOp-72" value="Steam Bot" style="whiteSpace=wrap;html=1;rounded=1;" vertex="1" parent="WIyWlLk6GJQsqaUBKTNV-1">
          <mxGeometry x="402" y="760" width="120" height="60" as="geometry" />
        </mxCell>
        <mxCell id="2T9Z32FSppc7P3TKEaOp-30" value="" style="group;rounded=1;" vertex="1" connectable="0" parent="WIyWlLk6GJQsqaUBKTNV-1">
          <mxGeometry x="-580" y="660" width="90" height="80" as="geometry" />
        </mxCell>
        <mxCell id="2T9Z32FSppc7P3TKEaOp-7" style="edgeStyle=orthogonalEdgeStyle;rounded=1;orthogonalLoop=1;jettySize=auto;html=1;movable=1;resizable=1;rotatable=1;deletable=1;editable=1;locked=0;connectable=1;" edge="1" parent="2T9Z32FSppc7P3TKEaOp-30">
          <mxGeometry relative="1" as="geometry">
            <mxPoint x="12" as="sourcePoint" />
            <mxPoint x="78" as="targetPoint" />
          </mxGeometry>
        </mxCell>
        <mxCell id="2T9Z32FSppc7P3TKEaOp-9" value="Read Froms" style="text;html=1;align=center;verticalAlign=middle;resizable=1;points=[];autosize=1;strokeColor=none;fillColor=none;movable=1;rotatable=1;deletable=1;editable=1;locked=0;connectable=1;container=0;rounded=1;" vertex="1" parent="2T9Z32FSppc7P3TKEaOp-30">
          <mxGeometry width="90" height="30" as="geometry" />
        </mxCell>
        <mxCell id="2T9Z32FSppc7P3TKEaOp-10" style="edgeStyle=orthogonalEdgeStyle;rounded=1;orthogonalLoop=1;jettySize=auto;html=1;dashed=1;movable=1;resizable=1;rotatable=1;deletable=1;editable=1;locked=0;connectable=1;" edge="1" parent="2T9Z32FSppc7P3TKEaOp-30">
          <mxGeometry relative="1" as="geometry">
            <mxPoint x="12" y="50" as="sourcePoint" />
            <mxPoint x="78" y="50" as="targetPoint" />
          </mxGeometry>
        </mxCell>
        <mxCell id="2T9Z32FSppc7P3TKEaOp-11" value="Writes to" style="text;html=1;align=center;verticalAlign=middle;resizable=1;points=[];autosize=1;strokeColor=none;fillColor=none;movable=1;rotatable=1;deletable=1;editable=1;locked=0;connectable=1;container=0;rounded=1;" vertex="1" parent="2T9Z32FSppc7P3TKEaOp-30">
          <mxGeometry x="10" y="50" width="70" height="30" as="geometry" />
        </mxCell>
        <mxCell id="2T9Z32FSppc7P3TKEaOp-37" value="PriceProviders" style="whiteSpace=wrap;html=1;rounded=1;" vertex="1" parent="WIyWlLk6GJQsqaUBKTNV-1">
          <mxGeometry x="400" y="1020" width="120" height="60" as="geometry" />
        </mxCell>
        <mxCell id="2T9Z32FSppc7P3TKEaOp-44" style="rounded=1;orthogonalLoop=1;jettySize=auto;html=1;dashed=1;" edge="1" parent="WIyWlLk6GJQsqaUBKTNV-1" source="2T9Z32FSppc7P3TKEaOp-38" target="2T9Z32FSppc7P3TKEaOp-40">
          <mxGeometry relative="1" as="geometry" />
        </mxCell>
        <mxCell id="2T9Z32FSppc7P3TKEaOp-58" style="rounded=1;orthogonalLoop=1;jettySize=auto;html=1;dashed=1;" edge="1" parent="WIyWlLk6GJQsqaUBKTNV-1" source="2T9Z32FSppc7P3TKEaOp-38" target="2T9Z32FSppc7P3TKEaOp-57">
          <mxGeometry relative="1" as="geometry" />
        </mxCell>
        <mxCell id="2T9Z32FSppc7P3TKEaOp-38" value="API" style="whiteSpace=wrap;html=1;rounded=1;" vertex="1" parent="WIyWlLk6GJQsqaUBKTNV-1">
          <mxGeometry x="-350" y="880" width="120" height="60" as="geometry" />
        </mxCell>
        <mxCell id="2T9Z32FSppc7P3TKEaOp-48" style="rounded=1;orthogonalLoop=1;jettySize=auto;html=1;dashed=1;" edge="1" parent="WIyWlLk6GJQsqaUBKTNV-1" source="2T9Z32FSppc7P3TKEaOp-39" target="2T9Z32FSppc7P3TKEaOp-46">
          <mxGeometry relative="1" as="geometry" />
        </mxCell>
        <mxCell id="2T9Z32FSppc7P3TKEaOp-39" value="WS" style="whiteSpace=wrap;html=1;rounded=1;" vertex="1" parent="WIyWlLk6GJQsqaUBKTNV-1">
          <mxGeometry x="-350" y="800" width="120" height="60" as="geometry" />
        </mxCell>
        <mxCell id="2T9Z32FSppc7P3TKEaOp-43" value="" style="group;rounded=1;" vertex="1" connectable="0" parent="WIyWlLk6GJQsqaUBKTNV-1">
          <mxGeometry x="-130" y="780" width="140" height="80" as="geometry" />
        </mxCell>
        <mxCell id="2T9Z32FSppc7P3TKEaOp-42" value="GameManagers" style="whiteSpace=wrap;html=1;rounded=1;" vertex="1" parent="2T9Z32FSppc7P3TKEaOp-43">
          <mxGeometry x="20" width="120" height="60" as="geometry" />
        </mxCell>
        <mxCell id="2T9Z32FSppc7P3TKEaOp-41" value="GameManagers" style="whiteSpace=wrap;html=1;rounded=1;" vertex="1" parent="2T9Z32FSppc7P3TKEaOp-43">
          <mxGeometry x="10" y="10" width="120" height="60" as="geometry" />
        </mxCell>
        <mxCell id="2T9Z32FSppc7P3TKEaOp-40" value="GameManagers" style="whiteSpace=wrap;html=1;rounded=1;" vertex="1" parent="2T9Z32FSppc7P3TKEaOp-43">
          <mxGeometry y="20" width="120" height="60" as="geometry" />
        </mxCell>
        <mxCell id="2T9Z32FSppc7P3TKEaOp-45" style="rounded=1;orthogonalLoop=1;jettySize=auto;html=1;dashed=1;" edge="1" parent="WIyWlLk6GJQsqaUBKTNV-1" source="2T9Z32FSppc7P3TKEaOp-40" target="2T9Z32FSppc7P3TKEaOp-39">
          <mxGeometry relative="1" as="geometry" />
        </mxCell>
        <mxCell id="2T9Z32FSppc7P3TKEaOp-47" style="rounded=1;orthogonalLoop=1;jettySize=auto;html=1;" edge="1" parent="WIyWlLk6GJQsqaUBKTNV-1" source="2T9Z32FSppc7P3TKEaOp-46" target="2T9Z32FSppc7P3TKEaOp-38">
          <mxGeometry relative="1" as="geometry" />
        </mxCell>
        <mxCell id="2T9Z32FSppc7P3TKEaOp-46" value="Frontend" style="rounded=1;whiteSpace=wrap;html=1;" vertex="1" parent="WIyWlLk6GJQsqaUBKTNV-1">
          <mxGeometry x="-579" y="830" width="120" height="60" as="geometry" />
        </mxCell>
        <mxCell id="2T9Z32FSppc7P3TKEaOp-49" value="" style="shape=cylinder3;whiteSpace=wrap;html=1;boundedLbl=1;backgroundOutline=1;size=15;rounded=1;" vertex="1" parent="WIyWlLk6GJQsqaUBKTNV-1">
          <mxGeometry x="-95" y="1115" width="50" height="70" as="geometry" />
        </mxCell>
        <mxCell id="2T9Z32FSppc7P3TKEaOp-53" style="edgeStyle=orthogonalEdgeStyle;rounded=1;orthogonalLoop=1;jettySize=auto;html=1;" edge="1" parent="WIyWlLk6GJQsqaUBKTNV-1" source="2T9Z32FSppc7P3TKEaOp-52" target="2T9Z32FSppc7P3TKEaOp-37">
          <mxGeometry relative="1" as="geometry" />
        </mxCell>
        <mxCell id="2T9Z32FSppc7P3TKEaOp-54" style="edgeStyle=orthogonalEdgeStyle;rounded=1;orthogonalLoop=1;jettySize=auto;html=1;dashed=1;" edge="1" parent="WIyWlLk6GJQsqaUBKTNV-1" source="2T9Z32FSppc7P3TKEaOp-52" target="2T9Z32FSppc7P3TKEaOp-49">
          <mxGeometry relative="1" as="geometry" />
        </mxCell>
        <mxCell id="2T9Z32FSppc7P3TKEaOp-52" value="PriceService" style="whiteSpace=wrap;html=1;rounded=1;" vertex="1" parent="WIyWlLk6GJQsqaUBKTNV-1">
          <mxGeometry x="-130" y="1020" width="120" height="60" as="geometry" />
        </mxCell>
        <mxCell id="2T9Z32FSppc7P3TKEaOp-55" style="edgeStyle=orthogonalEdgeStyle;rounded=1;orthogonalLoop=1;jettySize=auto;html=1;" edge="1" parent="WIyWlLk6GJQsqaUBKTNV-1" source="2T9Z32FSppc7P3TKEaOp-40" target="2T9Z32FSppc7P3TKEaOp-52">
          <mxGeometry relative="1" as="geometry" />
        </mxCell>
        <mxCell id="2T9Z32FSppc7P3TKEaOp-61" style="edgeStyle=orthogonalEdgeStyle;rounded=1;orthogonalLoop=1;jettySize=auto;html=1;" edge="1" parent="WIyWlLk6GJQsqaUBKTNV-1" source="2T9Z32FSppc7P3TKEaOp-57" target="2T9Z32FSppc7P3TKEaOp-60">
          <mxGeometry relative="1" as="geometry" />
        </mxCell>
        <mxCell id="2T9Z32FSppc7P3TKEaOp-64" style="rounded=1;orthogonalLoop=1;jettySize=auto;html=1;dashed=1;" edge="1" parent="WIyWlLk6GJQsqaUBKTNV-1" source="2T9Z32FSppc7P3TKEaOp-57" target="2T9Z32FSppc7P3TKEaOp-63">
          <mxGeometry relative="1" as="geometry" />
        </mxCell>
        <mxCell id="2T9Z32FSppc7P3TKEaOp-75" style="rounded=1;orthogonalLoop=1;jettySize=auto;html=1;dashed=1;" edge="1" parent="WIyWlLk6GJQsqaUBKTNV-1" source="2T9Z32FSppc7P3TKEaOp-57" target="2T9Z32FSppc7P3TKEaOp-65">
          <mxGeometry relative="1" as="geometry" />
        </mxCell>
        <mxCell id="2T9Z32FSppc7P3TKEaOp-57" value="AcountService" style="whiteSpace=wrap;html=1;rounded=1;" vertex="1" parent="WIyWlLk6GJQsqaUBKTNV-1">
          <mxGeometry x="-5" y="880" width="120" height="60" as="geometry" />
        </mxCell>
        <mxCell id="2T9Z32FSppc7P3TKEaOp-59" value="Steam" style="whiteSpace=wrap;html=1;rounded=1;" vertex="1" parent="WIyWlLk6GJQsqaUBKTNV-1">
          <mxGeometry x="400" y="880" width="120" height="60" as="geometry" />
        </mxCell>
        <mxCell id="2T9Z32FSppc7P3TKEaOp-62" style="edgeStyle=orthogonalEdgeStyle;rounded=1;orthogonalLoop=1;jettySize=auto;html=1;" edge="1" parent="WIyWlLk6GJQsqaUBKTNV-1" source="2T9Z32FSppc7P3TKEaOp-60" target="2T9Z32FSppc7P3TKEaOp-59">
          <mxGeometry relative="1" as="geometry" />
        </mxCell>
        <mxCell id="2T9Z32FSppc7P3TKEaOp-60" value="&lt;div&gt;Cache&lt;/div&gt;" style="whiteSpace=wrap;html=1;rounded=1;" vertex="1" parent="WIyWlLk6GJQsqaUBKTNV-1">
          <mxGeometry x="200" y="880" width="120" height="60" as="geometry" />
        </mxCell>
        <mxCell id="2T9Z32FSppc7P3TKEaOp-63" value="" style="shape=cylinder3;whiteSpace=wrap;html=1;boundedLbl=1;backgroundOutline=1;size=15;rounded=1;" vertex="1" parent="WIyWlLk6GJQsqaUBKTNV-1">
          <mxGeometry x="30" y="960" width="50" height="70" as="geometry" />
        </mxCell>
        <mxCell id="2T9Z32FSppc7P3TKEaOp-65" value="Steam Bot" style="whiteSpace=wrap;html=1;rounded=1;" vertex="1" parent="WIyWlLk6GJQsqaUBKTNV-1">
          <mxGeometry x="388" y="770" width="120" height="60" as="geometry" />
        </mxCell>
        <mxCell id="2T9Z32FSppc7P3TKEaOp-85" value="" style="shape=cylinder3;whiteSpace=wrap;html=1;boundedLbl=1;backgroundOutline=1;size=15;rounded=1;" vertex="1" parent="WIyWlLk6GJQsqaUBKTNV-1">
          <mxGeometry x="50" y="795" width="50" height="70" as="geometry" />
        </mxCell>
        <mxCell id="2T9Z32FSppc7P3TKEaOp-86" style="edgeStyle=orthogonalEdgeStyle;rounded=1;orthogonalLoop=1;jettySize=auto;html=1;" edge="1" parent="WIyWlLk6GJQsqaUBKTNV-1" source="2T9Z32FSppc7P3TKEaOp-40" target="2T9Z32FSppc7P3TKEaOp-85">
          <mxGeometry relative="1" as="geometry" />
        </mxCell>
      </root>
    </mxGraphModel>
  </diagram>
</mxfile>
